<svg width="64" height="64" viewBox="0 0 64 64" fill="none" xmlns="http://www.w3.org/2000/svg">
<path fill-rule="evenodd" clip-rule="evenodd" d="M39.3122 11.5295C38.3596 11.8558 37.385 12.2553 36.3886 12.7279C39.1167 14.6815 41.8187 16.9969 44.411 19.5893C47.0034 22.1817 49.3176 24.8837 51.2712 27.6118C51.7453 26.6154 52.1448 25.6408 52.4696 24.6881C54.2242 19.5531 53.6691 15.5837 51.0429 12.9574C48.4166 10.3311 44.4472 9.77595 39.3122 11.5295ZM37.8516 7.25026C35.9319 7.90599 33.9704 8.80479 31.9998 9.91727C30.0293 8.80479 28.0678 7.90486 26.1492 7.25026C20.146 5.20054 14.0862 5.43118 9.75849 9.76012C5.43187 14.0868 5.20011 20.1444 7.2498 26.1488C7.90552 28.0674 8.80431 30.0289 9.91677 31.9995C8.80431 33.9701 7.90439 35.9316 7.2498 37.8513C5.20011 43.8546 5.43074 49.9122 9.75962 54.2411C14.0874 58.569 20.1449 58.7996 26.1492 56.751C28.0678 56.0953 30.0293 55.1953 31.9998 54.0829C33.9704 55.1953 35.9319 56.0953 37.8516 56.751C43.8548 58.7996 49.9123 58.569 54.2412 54.2411C58.5689 49.9122 58.7996 43.8546 56.751 37.8513C56.0953 35.9316 55.1954 33.9712 54.0829 31.9995C55.1954 30.0289 56.0953 28.0674 56.751 26.1488C58.7996 20.1455 58.5689 14.0857 54.2412 9.75786C49.9134 5.43005 43.8548 5.20054 37.8516 7.25026ZM11.5289 24.6881C11.8553 25.6416 12.2548 26.6161 12.7273 27.6118C14.6809 24.8837 16.9963 22.1817 19.5886 19.5893C22.181 16.9969 24.883 14.6826 27.611 12.729C26.6596 12.2753 25.6835 11.8752 24.6874 11.5306C19.5525 9.77482 15.5831 10.3299 12.9568 12.9562C10.3306 15.5825 9.77545 19.5531 11.5289 24.6881ZM22.7858 22.7865C19.7469 25.8255 17.1873 28.9515 15.2055 32.0006C17.1873 35.0498 19.7469 38.1758 22.7858 41.2147C25.8248 44.2537 28.9507 46.8133 31.9998 48.7963C35.0489 46.8133 38.1749 44.2537 41.2138 41.2147C44.2528 38.1758 46.8123 35.0498 48.7942 32.0006C46.8123 28.9515 44.2528 25.8255 41.2138 22.7865C38.1749 19.7475 35.0489 17.1879 31.9998 15.2061C28.9507 17.1879 25.8248 19.7475 22.7858 22.7865ZM11.5289 39.3131C11.8553 38.3604 12.2548 37.3859 12.7273 36.3895C14.6809 39.1175 16.9963 41.8196 19.5886 44.412C22.181 47.0044 24.883 49.3198 27.611 51.2734C26.6596 51.7271 25.6835 52.1272 24.6874 52.4718C19.5525 54.2242 15.5831 53.6702 12.9568 51.0439C10.3306 48.4176 9.77545 44.4493 11.5289 39.3131ZM39.3122 52.4718C38.3161 52.1272 37.3401 51.7271 36.3886 51.2734C39.1167 49.3198 41.8187 47.0044 44.411 44.412C47.0034 41.8207 49.3176 39.1175 51.2712 36.3895C51.7453 37.3851 52.1448 38.3597 52.4696 39.3131C54.2242 44.4493 53.6691 48.4176 51.0429 51.0439C48.4166 53.6702 44.4472 54.2253 39.3122 52.4718ZM24.086 32.0006C24.086 30.9614 24.2907 29.9323 24.6884 28.9721C25.0861 28.0119 25.669 27.1395 26.4039 26.4046C27.1388 25.6697 28.0112 25.0868 28.9713 24.6891C29.9315 24.2914 30.9606 24.0867 31.9998 24.0867C33.0391 24.0867 34.0682 24.2914 35.0283 24.6891C35.9885 25.0868 36.8609 25.6697 37.5958 26.4046C38.3307 27.1395 38.9136 28.0119 39.3113 28.9721C39.709 29.9323 39.9137 30.9614 39.9137 32.0006C39.9137 34.0995 39.0799 36.1125 37.5958 37.5966C36.1116 39.0808 34.0987 39.9146 31.9998 39.9146C29.901 39.9146 27.888 39.0808 26.4039 37.5966C24.9198 36.1125 24.086 34.0995 24.086 32.0006Z" fill="#262626"/>
</svg>
