<svg width="64" height="64" viewBox="0 0 64 64" fill="none" xmlns="http://www.w3.org/2000/svg">
<path d="M50.6667 24C51.374 24 52.0523 24.2809 52.5524 24.781C53.0525 25.2811 53.3334 25.9594 53.3334 26.6666C53.334 31.8627 51.4381 36.8803 48.0017 40.7777C44.5653 44.6752 39.8246 47.1845 34.6694 47.8346L34.6667 53.3333H42.6667C43.374 53.3333 44.0523 53.6142 44.5524 54.1143C45.0525 54.6144 45.3334 55.2927 45.3334 56C45.3334 56.7072 45.0525 57.3855 44.5524 57.8856C44.0523 58.3857 43.374 58.6666 42.6667 58.6666H21.3334C20.6262 58.6666 19.9479 58.3857 19.4478 57.8856C18.9477 57.3855 18.6667 56.7072 18.6667 56C18.6667 55.2927 18.9477 54.6144 19.4478 54.1143C19.9479 53.6142 20.6262 53.3333 21.3334 53.3333H29.3334V47.8346C24.1777 47.1851 19.4364 44.676 15.9994 40.7785C12.5625 36.881 10.6663 31.8631 10.6667 26.6666C10.6667 25.9594 10.9477 25.2811 11.4478 24.781C11.9479 24.2809 12.6262 24 13.3334 24C14.0407 24 14.7189 24.2809 15.219 24.781C15.7191 25.2811 16.0001 25.9594 16.0001 26.6666C16.0001 30.9101 17.6858 34.9798 20.6864 37.9803C23.687 40.9809 27.7566 42.6666 32.0001 42.6666C36.2435 42.6666 40.3132 40.9809 43.3138 37.9803C46.3144 34.9798 48.0001 30.9101 48.0001 26.6666C48.0001 25.9594 48.281 25.2811 48.7811 24.781C49.2812 24.2809 49.9595 24 50.6667 24ZM32.0001 2.66663C34.8291 2.66663 37.5422 3.79043 39.5426 5.79082C41.5429 7.79121 42.6667 10.5043 42.6667 13.3333V26.6666C42.6667 29.4956 41.5429 32.2087 39.5426 34.2091C37.5422 36.2095 34.8291 37.3333 32.0001 37.3333C29.1711 37.3333 26.458 36.2095 24.4576 34.2091C22.4572 32.2087 21.3334 29.4956 21.3334 26.6666V13.3333C21.3334 10.5043 22.4572 7.79121 24.4576 5.79082C26.458 3.79043 29.1711 2.66663 32.0001 2.66663Z" fill="#626262"/>
</svg>
