<svg width="24" height="24" viewBox="0 0 24 24" fill="none" xmlns="http://www.w3.org/2000/svg">
<path d="M6.77266 4.68676C6.68244 4.59129 6.61191 4.47898 6.56509 4.35626C6.51828 4.23353 6.49609 4.10278 6.49981 3.97148C6.50352 3.84017 6.53306 3.71089 6.58674 3.591C6.64042 3.47112 6.71719 3.36298 6.81266 3.27276C6.90813 3.18254 7.02043 3.11201 7.14316 3.0652C7.26589 3.01838 7.39664 2.9962 7.52794 2.99991C7.65924 3.00363 7.78853 3.03317 7.90841 3.08684C8.0283 3.14052 8.13644 3.21729 8.22666 3.31276L16.7267 11.3128C16.9022 11.4984 17 11.7442 17 11.9998C17 12.2553 16.9022 12.5011 16.7267 12.6868L8.22666 20.6878C8.13704 20.7853 8.02892 20.8641 7.90859 20.9195C7.78827 20.975 7.65813 21.0059 7.52573 21.0106C7.39334 21.0153 7.26133 20.9937 7.13737 20.9469C7.01341 20.9002 6.89998 20.8293 6.80366 20.7383C6.70734 20.6474 6.63005 20.5382 6.57629 20.4171C6.52252 20.296 6.49335 20.1655 6.49046 20.033C6.48758 19.9006 6.51104 19.7689 6.55948 19.6456C6.60793 19.5223 6.68039 19.4098 6.77266 19.3148L14.6247 11.9998L6.77266 4.68676Z" fill="#6A63F5"/>
</svg>
