<svg width="64" height="64" viewBox="0 0 64 64" fill="none" xmlns="http://www.w3.org/2000/svg">
<path d="M8 32V50.6667C8 53.6 10.4 56 13.3333 56H18.6667C21.6 56 24 53.6 24 50.6667V40C24 37.0667 21.6 34.6667 18.6667 34.6667H13.3333V32C13.3333 21.68 21.68 13.3333 32 13.3333C42.32 13.3333 50.6667 21.68 50.6667 32V34.6667H45.3333C42.4 34.6667 40 37.0667 40 40V50.6667C40 53.6 42.4 56 45.3333 56H50.6667C53.6 56 56 53.6 56 50.6667V32C56 25.6348 53.4714 19.5303 48.9706 15.0294C44.4697 10.5286 38.3652 8 32 8C25.6348 8 19.5303 10.5286 15.0294 15.0294C10.5286 19.5303 8 25.6348 8 32Z" fill="#626262"/>
</svg>
