<svg width="64" height="64" viewBox="0 0 64 64" fill="none" xmlns="http://www.w3.org/2000/svg">
<path d="M55.7972 14.9786C55.6628 14.6555 55.4662 14.3619 55.2185 14.1146L47.2185 6.11464C46.9725 5.85994 46.6782 5.65679 46.3529 5.51704C46.0276 5.37728 45.6776 5.30371 45.3236 5.30064C44.9695 5.29756 44.6183 5.36503 44.2906 5.49911C43.9629 5.6332 43.6651 5.83121 43.4148 6.08159C43.1644 6.33197 42.9664 6.6297 42.8323 6.95743C42.6982 7.28515 42.6307 7.6363 42.6338 7.99038C42.6369 8.34445 42.7105 8.69437 42.8502 9.01972C42.99 9.34506 43.1931 9.63931 43.4478 9.88531L46.8958 13.3333H21.3332C17.7969 13.3333 14.4055 14.7381 11.9051 17.2385C9.40458 19.739 7.99982 23.1304 7.99982 26.6666V32C7.99982 32.7072 8.28077 33.3855 8.78087 33.8856C9.28097 34.3857 9.95924 34.6666 10.6665 34.6666C11.3737 34.6666 12.052 34.3857 12.5521 33.8856C13.0522 33.3855 13.3332 32.7072 13.3332 32V26.6666C13.3332 24.5449 14.176 22.5101 15.6763 21.0098C17.1766 19.5095 19.2114 18.6666 21.3332 18.6666H46.8958L43.4478 22.1146C42.9621 22.6176 42.6933 23.2912 42.6994 23.9904C42.7054 24.6896 42.9859 25.3584 43.4803 25.8528C43.9747 26.3472 44.6436 26.6277 45.3428 26.6338C46.0419 26.6398 46.7155 26.3711 47.2185 25.8853L55.2185 17.8853C55.7186 17.3853 55.9997 16.7072 55.9998 16M55.7972 14.9786C55.9301 15.3 55.999 15.6442 55.9998 15.992L55.7972 14.9786ZM8.20249 46.9786C8.00061 47.466 7.94783 48.0024 8.05084 48.5198C8.15384 49.0372 8.408 49.5124 8.78115 49.8853L16.7812 57.8853C17.2841 58.3711 17.9577 58.6398 18.6569 58.6338C19.3561 58.6277 20.0249 58.3472 20.5193 57.8528C21.0138 57.3584 21.2942 56.6896 21.3003 55.9904C21.3064 55.2912 21.0376 54.6176 20.5518 54.1146L17.1038 50.6666H42.6665C46.2027 50.6666 49.5941 49.2619 52.0946 46.7614C54.5951 44.2609 55.9998 40.8695 55.9998 37.3333V32C55.9998 31.2927 55.7189 30.6144 55.2188 30.1144C54.7187 29.6143 54.0404 29.3333 53.3332 29.3333C52.6259 29.3333 51.9476 29.6143 51.4475 30.1144C50.9474 30.6144 50.6665 31.2927 50.6665 32V37.3333C50.6665 39.455 49.8236 41.4899 48.3233 42.9902C46.8231 44.4904 44.7882 45.3333 42.6665 45.3333H17.1038L20.5518 41.8853C20.8065 41.6393 21.0097 41.3451 21.1494 41.0197C21.2892 40.6944 21.3627 40.3445 21.3658 39.9904C21.3689 39.6363 21.3014 39.2851 21.1673 38.9574C21.0333 38.6297 20.8353 38.332 20.5849 38.0816C20.3345 37.8312 20.0368 37.6332 19.709 37.4991C19.3813 37.365 19.0302 37.2976 18.6761 37.3006C18.322 37.3037 17.9721 37.3773 17.6467 37.517C17.3214 37.6568 17.0271 37.8599 16.7812 38.1146L8.78115 46.1146M8.20249 46.9786C8.33583 46.6578 8.5306 46.3661 8.77582 46.12L8.20249 46.9786Z" fill="#6A63F5"/>
</svg>
