<svg width="24" height="24" viewBox="0 0 24 24" fill="none" xmlns="http://www.w3.org/2000/svg">
<path d="M11.9991 1.25C11.584 1.24999 11.1729 1.33176 10.7895 1.49065C10.406 1.64953 10.0575 1.88242 9.76409 2.176L2.17609 9.765C1.88249 10.0585 1.64959 10.4069 1.49069 10.7904C1.33179 11.1739 1.25 11.5849 1.25 12C1.25 12.4151 1.33179 12.8261 1.49069 13.2096C1.64959 13.5931 1.88249 13.9415 2.17609 14.235L9.76409 21.823C10.0575 22.1166 10.406 22.3495 10.7895 22.5084C11.1729 22.6673 11.584 22.7491 11.9991 22.7491C12.4142 22.7491 12.8252 22.6673 13.2087 22.5084C13.5922 22.3495 13.9406 22.1166 14.2341 21.823L21.8221 14.235C22.1157 13.9415 22.3486 13.5931 22.5075 13.2096C22.6664 12.8261 22.7482 12.4151 22.7482 12C22.7482 11.5849 22.6664 11.1739 22.5075 10.7904C22.3486 10.4069 22.1157 10.0585 21.8221 9.765L14.2341 2.177C13.9407 1.88324 13.5923 1.65017 13.2088 1.49111C12.8253 1.33205 12.4143 1.25012 11.9991 1.25ZM11.9991 6.877C12.198 6.877 12.3888 6.95602 12.5294 7.09667C12.6701 7.23732 12.7491 7.42809 12.7491 7.627V13.127C12.7491 13.3259 12.6701 13.5167 12.5294 13.6573C12.3888 13.798 12.198 13.877 11.9991 13.877C11.8002 13.877 11.6094 13.798 11.4688 13.6573C11.3281 13.5167 11.2491 13.3259 11.2491 13.127V7.627C11.2491 7.42809 11.3281 7.23732 11.4688 7.09667C11.6094 6.95602 11.8002 6.877 11.9991 6.877ZM12.7491 15.873V16.373C12.7491 16.5719 12.6701 16.7627 12.5294 16.9033C12.3888 17.044 12.198 17.123 11.9991 17.123C11.8002 17.123 11.6094 17.044 11.4688 16.9033C11.3281 16.7627 11.2491 16.5719 11.2491 16.373V15.873C11.2491 15.6741 11.3281 15.4833 11.4688 15.3427C11.6094 15.202 11.8002 15.123 11.9991 15.123C12.198 15.123 12.3888 15.202 12.5294 15.3427C12.6701 15.4833 12.7491 15.6741 12.7491 15.873Z" fill="#6A63F5"/>
</svg>
