<svg width="16" height="16" viewBox="0 0 16 16" fill="none" xmlns="http://www.w3.org/2000/svg">
<g clip-path="url(#clip0_111_310)">
<path d="M8.5 0.75C8.5 0.551088 8.42098 0.360322 8.28033 0.21967C8.13968 0.0790176 7.94891 0 7.75 0C7.55109 0 7.36032 0.0790176 7.21967 0.21967C7.07902 0.360322 7 0.551088 7 0.75V5.94L4.391 3.33C4.32178 3.2584 4.239 3.2013 4.14747 3.16204C4.05595 3.12278 3.95753 3.10214 3.85794 3.10132C3.75836 3.1005 3.65961 3.11952 3.56746 3.15728C3.4753 3.19503 3.39159 3.25076 3.3212 3.32121C3.25082 3.39166 3.19517 3.47543 3.1575 3.56762C3.11983 3.65981 3.1009 3.75858 3.10181 3.85816C3.10273 3.95774 3.12346 4.05615 3.16281 4.14763C3.20216 4.23912 3.25934 4.32185 3.331 4.391L5.939 7H0.75C0.551088 7 0.360322 7.07902 0.21967 7.21967C0.0790176 7.36032 0 7.55109 0 7.75C0 7.94891 0.0790176 8.13968 0.21967 8.28033C0.360322 8.42098 0.551088 8.5 0.75 8.5H5.94L3.33 11.109C3.2584 11.1782 3.2013 11.261 3.16204 11.3525C3.12278 11.444 3.10214 11.5425 3.10132 11.6421C3.1005 11.7416 3.11952 11.8404 3.15728 11.9325C3.19503 12.0247 3.25076 12.1084 3.32121 12.1788C3.39166 12.2492 3.47543 12.3048 3.56762 12.3425C3.65981 12.3802 3.75858 12.3991 3.85816 12.3982C3.95774 12.3973 4.05615 12.3765 4.14763 12.3372C4.23912 12.2978 4.32185 12.2407 4.391 12.169L7 9.561V14.75C7 14.9489 7.07902 15.1397 7.21967 15.2803C7.36032 15.421 7.55109 15.5 7.75 15.5C7.94891 15.5 8.13968 15.421 8.28033 15.2803C8.42098 15.1397 8.5 14.9489 8.5 14.75V9.56L11.109 12.17C11.1782 12.2416 11.261 12.2987 11.3525 12.338C11.444 12.3772 11.5425 12.3979 11.6421 12.3987C11.7416 12.3995 11.8404 12.3805 11.9325 12.3427C12.0247 12.305 12.1084 12.2492 12.1788 12.1788C12.2492 12.1083 12.3048 12.0246 12.3425 11.9324C12.3802 11.8402 12.3991 11.7414 12.3982 11.6418C12.3973 11.5423 12.3765 11.4439 12.3372 11.3524C12.2978 11.2609 12.2407 11.1782 12.169 11.109L9.561 8.5H14.75C14.9489 8.5 15.1397 8.42098 15.2803 8.28033C15.421 8.13968 15.5 7.94891 15.5 7.75C15.5 7.55109 15.421 7.36032 15.2803 7.21967C15.1397 7.07902 14.9489 7 14.75 7H9.56L12.17 4.391C12.3066 4.24948 12.3821 4.06 12.3803 3.86335C12.3785 3.6667 12.2995 3.47863 12.1604 3.33964C12.0212 3.20065 11.8331 3.12186 11.6365 3.12024C11.4398 3.11863 11.2504 3.19431 11.109 3.331L8.5 5.939V0.75Z" fill="#6A63F5"/>
</g>
<defs>
<clipPath id="clip0_111_310">
<rect width="16" height="16" fill="white"/>
</clipPath>
</defs>
</svg>
