<svg width="64" height="64" viewBox="0 0 64 64" fill="none" xmlns="http://www.w3.org/2000/svg">
<path d="M53.4623 31.3652L25.4623 61.3652C25.1656 61.6819 24.774 61.8934 24.3465 61.968C23.9189 62.0425 23.4788 61.976 23.0924 61.7784C22.706 61.5808 22.3944 61.263 22.2045 60.8728C22.0147 60.4825 21.9569 60.0412 22.0398 59.6152L25.7048 41.2827L11.2973 35.8727C10.9879 35.757 10.712 35.5664 10.4942 35.318C10.2764 35.0696 10.1235 34.7711 10.0493 34.4492C9.97498 34.1273 9.98159 33.792 10.0685 33.4733C10.1554 33.1546 10.3199 32.8623 10.5473 32.6227L38.5473 2.62272C38.8441 2.30605 39.2357 2.09449 39.6632 2.01996C40.0908 1.94542 40.5309 2.01196 40.9173 2.20952C41.3037 2.40708 41.6153 2.72496 41.8052 3.11517C41.995 3.50539 42.0528 3.94677 41.9698 4.37272L38.2948 22.7252L52.7023 28.1277C53.0095 28.2442 53.2832 28.4346 53.4993 28.682C53.7154 28.9294 53.8672 29.2263 53.9414 29.5463C54.0155 29.8663 54.0097 30.1997 53.9244 30.5169C53.8391 30.8342 53.677 31.1255 53.4523 31.3652H53.4623Z" fill="#6A63F5"/>
</svg>
