<svg width="24" height="24" viewBox="0 0 24 24" fill="none" xmlns="http://www.w3.org/2000/svg">
<path d="M13.2407 13.2809C13.2407 12.5589 12.9587 11.8649 12.4557 11.3469C12.271 11.1564 12.1695 10.9004 12.1735 10.6352C12.1775 10.3699 12.2868 10.1171 12.4772 9.93236C12.6676 9.74763 12.9236 9.64612 13.1889 9.65016C13.4542 9.65419 13.707 9.76343 13.8917 9.95386C14.7562 10.8456 15.2396 12.0389 15.2396 13.2809C15.2396 14.5229 14.7562 15.7161 13.8917 16.6079L13.8887 16.6119L9.97571 20.6039C9.54526 21.0456 9.03071 21.3968 8.4624 21.6365C7.89409 21.8762 7.28352 21.9997 6.66671 21.9997C6.0499 21.9997 5.43934 21.8762 4.87102 21.6365C4.30271 21.3968 3.78816 21.0456 3.35771 20.6039C2.4892 19.7127 2.00247 18.5179 2.00098 17.2735C1.99949 16.0291 2.48334 14.8331 3.34971 13.9399L5.95671 11.1999C6.13971 11.0078 6.39149 10.8964 6.65667 10.89C6.92185 10.8836 7.1787 10.9829 7.37071 11.1659C7.56273 11.3489 7.67418 11.6006 7.68056 11.8658C7.68694 12.131 7.58771 12.3878 7.40471 12.5799L4.79971 15.3169L4.79071 15.3269C4.31722 15.8124 4.03758 16.4544 4.00442 17.1318C3.97127 17.8092 4.1869 18.4754 4.61071 19.0049L4.79071 19.2069C5.03483 19.4575 5.32669 19.6578 5.64907 19.7938C5.97145 19.9299 6.31781 19.9999 6.66771 19.9999C7.01762 19.9999 7.36398 19.9299 7.68635 19.7938C8.00873 19.6578 8.30059 19.4585 8.54471 19.2079L8.54671 19.2059L12.4607 15.2109C12.9607 14.6929 13.2407 14.0009 13.2407 13.2809ZM19.9997 6.73186C19.9994 6.00692 19.7159 5.31079 19.2097 4.79186C18.9656 4.54118 18.6737 4.34094 18.3514 4.2049C18.029 4.06886 17.6826 3.99877 17.3327 3.99877C16.9828 3.99877 16.6364 4.06886 16.3141 4.2049C15.9917 4.34094 15.6998 4.54018 15.4557 4.79086L15.4527 4.79386L11.4037 8.91386C10.9401 9.38905 10.6619 10.0144 10.6194 10.6769C10.5768 11.3394 10.7727 11.9953 11.1717 12.5259C11.3308 12.738 11.3992 13.0047 11.3617 13.2673C11.3242 13.5298 11.1839 13.7667 10.9717 13.9259C10.7595 14.085 10.4928 14.1533 10.2303 14.1158C9.96774 14.0783 9.73084 13.938 9.57171 13.7259C8.88683 12.8137 8.55071 11.6867 8.62406 10.5484C8.69742 9.4101 9.17541 8.33556 9.97171 7.51886L9.97571 7.51586L14.0257 3.39286C14.4562 2.95167 14.9707 2.6011 15.5388 2.3618C16.1069 2.12251 16.7172 1.99933 17.3336 1.99951C17.9501 1.9997 18.5603 2.12325 19.1282 2.36289C19.6962 2.60253 20.2104 2.95341 20.6407 3.39486C21.5084 4.2838 21.9957 5.47578 21.9993 6.71801C22.0028 7.96023 21.5223 9.15498 20.6597 10.0489L17.9497 12.9799C17.8605 13.0763 17.7531 13.1542 17.6338 13.2092C17.5144 13.2642 17.3854 13.2951 17.2541 13.3002C17.1228 13.3053 16.9918 13.2845 16.8685 13.239C16.7453 13.1935 16.6322 13.1241 16.5357 13.0349C16.4393 12.9456 16.3613 12.8383 16.3064 12.7189C16.2514 12.5996 16.2205 12.4706 16.2154 12.3392C16.2103 12.2079 16.2311 12.0769 16.2766 11.9537C16.3221 11.8304 16.3915 11.7173 16.4807 11.6209L19.1907 8.69086L19.2087 8.67086C19.7149 8.15193 19.9984 7.45579 19.9987 6.73086" fill="#6A63F5"/>
</svg>
