<svg width="64" height="64" viewBox="0 0 64 64" fill="none" xmlns="http://www.w3.org/2000/svg">
<path d="M50.6667 18.6667V10.6667H34.6667V53.3334H42.6667C43.3739 53.3334 44.0522 53.6143 44.5523 54.1144C45.0524 54.6145 45.3333 55.2928 45.3333 56C45.3333 56.7073 45.0524 57.3856 44.5523 57.8857C44.0522 58.3858 43.3739 58.6667 42.6667 58.6667H21.3333C20.6261 58.6667 19.9478 58.3858 19.4477 57.8857C18.9476 57.3856 18.6667 56.7073 18.6667 56C18.6667 55.2928 18.9476 54.6145 19.4477 54.1144C19.9478 53.6143 20.6261 53.3334 21.3333 53.3334H29.3333V10.6667H13.3333V18.6667C13.3333 19.374 13.0524 20.0522 12.5523 20.5523C12.0522 21.0524 11.3739 21.3334 10.6667 21.3334C9.95942 21.3334 9.28115 21.0524 8.78105 20.5523C8.28095 20.0522 8 19.374 8 18.6667V8.00004C8 7.2928 8.28095 6.61452 8.78105 6.11442C9.28115 5.61433 9.95942 5.33337 10.6667 5.33337H53.3333C54.0406 5.33337 54.7189 5.61433 55.219 6.11442C55.7191 6.61452 56 7.2928 56 8.00004V18.6667C56 19.374 55.7191 20.0522 55.219 20.5523C54.7189 21.0524 54.0406 21.3334 53.3333 21.3334C52.6261 21.3334 51.9478 21.0524 51.4477 20.5523C50.9476 20.0522 50.6667 19.374 50.6667 18.6667Z" fill="#626262"/>
</svg>
