<svg width="64" height="64" viewBox="0 0 64 64" fill="none" xmlns="http://www.w3.org/2000/svg">
<path fill-rule="evenodd" clip-rule="evenodd" d="M26.5173 6H37.4826C42.3839 6 46.2666 6 49.3039 6.408C52.4293 6.82933 54.9599 7.71467 56.9573 9.70933C58.9519 11.7067 59.8373 14.2373 60.2586 17.3627C60.6666 20.4027 60.6666 24.2827 60.6666 29.184V34.6667C60.6666 35.1971 60.4559 35.7058 60.0808 36.0809C59.7057 36.456 59.197 36.6667 58.6666 36.6667C58.1362 36.6667 57.6274 36.456 57.2524 36.0809C56.8773 35.7058 56.6666 35.1971 56.6666 34.6667V34H7.33325V34.6667C7.33325 39.752 7.33859 43.3653 7.70659 46.1067C8.06659 48.7867 8.74392 50.3333 9.87192 51.4613C10.9999 52.5893 12.5466 53.2667 15.2293 53.6267C17.9706 53.9947 21.5813 54 26.6666 54H34.6666C35.197 54 35.7057 54.2107 36.0808 54.5858C36.4559 54.9609 36.6666 55.4696 36.6666 56C36.6666 56.5304 36.4559 57.0391 36.0808 57.4142C35.7057 57.7893 35.197 58 34.6666 58H26.5173C21.6159 58 17.7333 58 14.6959 57.592C11.5706 57.1707 9.03992 56.2853 7.04259 54.2907C5.04792 52.2933 4.16259 49.7627 3.74125 46.6373C3.33325 43.5973 3.33325 39.7173 3.33325 34.816V29.184C3.33325 24.2827 3.33325 20.4 3.74125 17.3627C4.16259 14.2373 5.04792 11.7067 7.04259 9.70933C9.03992 7.71467 11.5706 6.82933 14.6959 6.408C17.7359 6 21.6159 6 26.5173 6ZM7.33325 30H56.6666V29.3333C56.6666 24.248 56.6613 20.6373 56.2933 17.8933C55.9333 15.2133 55.2559 13.6667 54.1279 12.5387C52.9999 11.4107 51.4533 10.7333 48.7706 10.3733C46.0319 10.0053 42.4186 10 37.3333 10H26.6666C21.5813 10 17.9706 10.0053 15.2266 10.3733C12.5466 10.7333 10.9999 11.4107 9.87192 12.5387C8.74392 13.6667 8.06659 15.2133 7.70659 17.8933C7.33859 20.6373 7.33325 24.248 7.33325 29.3333V30ZM15.9999 15.3333C16.5304 15.3333 17.0391 15.544 17.4141 15.9191C17.7892 16.2942 17.9999 16.8029 17.9999 17.3333V22.6667C17.9999 23.1971 17.7892 23.7058 17.4141 24.0809C17.0391 24.456 16.5304 24.6667 15.9999 24.6667C15.4695 24.6667 14.9608 24.456 14.5857 24.0809C14.2106 23.7058 13.9999 23.1971 13.9999 22.6667V17.3333C13.9999 16.8029 14.2106 16.2942 14.5857 15.9191C14.9608 15.544 15.4695 15.3333 15.9999 15.3333ZM23.9999 15.3333C24.5304 15.3333 25.0391 15.544 25.4141 15.9191C25.7892 16.2942 25.9999 16.8029 25.9999 17.3333V22.6667C25.9999 23.1971 25.7892 23.7058 25.4141 24.0809C25.0391 24.456 24.5304 24.6667 23.9999 24.6667C23.4695 24.6667 22.9608 24.456 22.5857 24.0809C22.2106 23.7058 21.9999 23.1971 21.9999 22.6667V17.3333C21.9999 16.8029 22.2106 16.2942 22.5857 15.9191C22.9608 15.544 23.4695 15.3333 23.9999 15.3333ZM33.9999 20C33.9999 19.4696 34.2106 18.9609 34.5857 18.5858C34.9608 18.2107 35.4695 18 35.9999 18H47.9999C48.5304 18 49.0391 18.2107 49.4141 18.5858C49.7892 18.9609 49.9999 19.4696 49.9999 20C49.9999 20.5304 49.7892 21.0391 49.4141 21.4142C49.0391 21.7893 48.5304 22 47.9999 22H35.9999C35.4695 22 34.9608 21.7893 34.5857 21.4142C34.2106 21.0391 33.9999 20.5304 33.9999 20ZM39.8106 44.6747C40.8479 40.6827 44.9413 38 49.3466 38C52.7519 38 55.8533 39.5467 57.6293 42.04C57.7816 42.254 57.8903 42.4958 57.9491 42.7518C58.008 43.0078 58.0159 43.2729 57.9723 43.5319C57.9287 43.7909 57.8345 44.0388 57.6951 44.2614C57.5558 44.484 57.3739 44.677 57.1599 44.8293C56.946 44.9817 56.7041 45.0904 56.4481 45.1492C56.1921 45.2081 55.9271 45.2159 55.6681 45.1724C55.409 45.1288 55.1611 45.0346 54.9385 44.8952C54.7159 44.7558 54.5229 44.574 54.3706 44.36C53.4106 43.0133 51.5759 42 49.3466 42C46.7679 42 44.8479 43.2853 44.0133 44.88C44.3077 45.0283 44.5609 45.247 44.7504 45.5167C44.9399 45.7865 45.0597 46.0989 45.0993 46.4261C45.1389 46.7534 45.097 47.0854 44.9773 47.3925C44.8576 47.6997 44.6638 47.9725 44.4133 48.1867L42.8586 49.52C42.4961 49.8306 42.0346 50.0013 41.5573 50.0013C41.0799 50.0013 40.6184 49.8306 40.2559 49.52L38.6986 48.1867C38.3998 47.9314 38.1828 47.5938 38.0747 47.216C37.9666 46.8382 37.9722 46.4368 38.0908 46.0622C38.2095 45.6875 38.4358 45.3561 38.7417 45.1094C39.0475 44.8626 39.4193 44.7114 39.8106 44.6747ZM15.9999 39.3333C16.5304 39.3333 17.0391 39.544 17.4141 39.9191C17.7892 40.2942 17.9999 40.8029 17.9999 41.3333V46.6667C17.9999 47.1971 17.7892 47.7058 17.4141 48.0809C17.0391 48.456 16.5304 48.6667 15.9999 48.6667C15.4695 48.6667 14.9608 48.456 14.5857 48.0809C14.2106 47.7058 13.9999 47.1971 13.9999 46.6667V41.3333C13.9999 40.8029 14.2106 40.2942 14.5857 39.9191C14.9608 39.544 15.4695 39.3333 15.9999 39.3333ZM23.9999 39.3333C24.5304 39.3333 25.0391 39.544 25.4141 39.9191C25.7892 40.2942 25.9999 40.8029 25.9999 41.3333V46.6667C25.9999 47.1971 25.7892 47.7058 25.4141 48.0809C25.0391 48.456 24.5304 48.6667 23.9999 48.6667C23.4695 48.6667 22.9608 48.456 22.5857 48.0809C22.2106 47.7058 21.9999 47.1971 21.9999 46.6667V41.3333C21.9999 40.8029 22.2106 40.2942 22.5857 39.9191C22.9608 39.544 23.4695 39.3333 23.9999 39.3333ZM55.8079 46.48C56.1704 46.1694 56.6319 45.9987 57.1093 45.9987C57.5866 45.9987 58.0481 46.1694 58.4106 46.48L59.9679 47.8133C60.2667 48.0686 60.4837 48.4062 60.5918 48.784C60.6999 49.1619 60.6943 49.5632 60.5757 49.9378C60.457 50.3125 60.2307 50.6439 59.9248 50.8906C59.619 51.1374 59.2472 51.2886 58.8559 51.3253C57.8186 55.3173 53.7253 58 49.3199 58C45.9146 58 42.8133 56.4533 41.0373 53.96C40.8849 53.746 40.7762 53.5042 40.7174 53.2482C40.6585 52.9922 40.6506 52.7271 40.6942 52.4681C40.7378 52.2091 40.832 51.9612 40.9714 51.7386C41.1108 51.516 41.2926 51.323 41.5066 51.1707C41.7206 51.0183 41.9624 50.9096 42.2184 50.8508C42.4744 50.7919 42.7394 50.7841 42.9985 50.8276C43.2575 50.8712 43.5054 50.9654 43.728 51.1048C43.9506 51.2442 44.1436 51.426 44.2959 51.64C45.2559 52.9867 47.0906 54 49.3199 54C51.8986 54 53.8186 52.7147 54.6533 51.12C54.3588 50.9717 54.1056 50.753 53.9161 50.4833C53.7266 50.2135 53.6068 49.9011 53.5672 49.5739C53.5276 49.2466 53.5695 48.9146 53.6892 48.6075C53.8089 48.3003 54.0027 48.0275 54.2533 47.8133L55.8079 46.48Z" fill="#626262"/>
</svg>
