<svg width="64" height="64" viewBox="0 0 64 64" fill="none" xmlns="http://www.w3.org/2000/svg">
<path fill-rule="evenodd" clip-rule="evenodd" d="M52.0078 39.3394H32.961C35.1222 39.1464 37.1261 38.1257 38.5564 36.4893C39.9867 34.853 40.7334 32.7269 40.6414 30.5528C40.5494 28.3787 39.6257 26.3237 38.0623 24.8149C36.4989 23.306 34.416 22.4593 32.2463 22.4506H26.0245C26.9547 21.1962 27.62 19.7646 27.9797 18.2436C28.3395 16.7225 28.3861 15.1438 28.1168 13.604C27.8474 12.0642 27.2678 10.5957 26.4133 9.28829C25.5588 7.98085 24.4473 6.86195 23.147 6L52.0078 6C53.3325 6.00197 54.6023 6.53113 55.5383 7.47127C56.4743 8.41142 57 9.6857 57 11.0143V34.3363C57 37.0997 54.7631 39.3431 52.0078 39.3431V39.3394ZM16.8104 22.458C17.7223 22.4793 18.6292 22.3175 19.4779 21.9822C20.3266 21.6469 21.0999 21.1449 21.7524 20.5056C22.4048 19.8662 22.9233 19.1026 23.2772 18.2594C23.6312 17.4163 23.8135 16.5107 23.8135 15.5959C23.8135 14.681 23.6312 13.7754 23.2772 12.9323C22.9233 12.0891 22.4048 11.3255 21.7524 10.6862C21.0999 10.0468 20.3266 9.54478 19.4779 9.20949C18.6292 8.87419 17.7223 8.71243 16.8104 8.73371C15.0233 8.77542 13.3234 9.5167 12.0742 10.7991C10.825 12.0814 10.1256 13.8031 10.1256 15.5959C10.1256 17.3887 10.825 19.1103 12.0742 20.3927C13.3234 21.675 15.0233 22.4163 16.8104 22.458ZM36.0497 30.9117C36.0497 28.802 34.3461 27.0934 32.2463 27.0934H16.8141C14.2112 27.0934 11.715 28.1304 9.87448 29.9763C8.03398 31.8222 7 34.3258 7 36.9363V41.412C7 43.388 8.59988 44.9889 10.5701 44.9889H11.2071L12.2515 54.6831C12.3491 55.5934 12.7785 56.4353 13.4572 57.0475C14.136 57.6596 15.0162 57.9988 15.929 58H17.7881C18.6815 57.9996 19.5446 57.6753 20.2184 57.0869C20.8922 56.4986 21.3312 55.6857 21.4545 54.7983L24.2432 34.7263H32.2426C34.3424 34.7263 36.046 33.0177 36.046 30.9117H36.0497Z" fill="#6A63F5"/>
</svg>
