<svg width="16" height="16" viewBox="0 0 16 16" fill="none" xmlns="http://www.w3.org/2000/svg">
<g clip-path="url(#clip0_130_502)">
<path d="M5.37592 10.6265L10.626 5.37585M7.12594 2.7505L7.53107 2.28144C8.35166 1.46087 9.46458 0.999918 10.625 1C11.7854 1.00008 12.8982 1.46119 13.7187 2.28188C14.5392 3.10256 15.0001 4.21561 15 5.37616C14.9999 6.53671 14.5389 7.64969 13.7183 8.47026L13.251 8.87632M8.87597 13.2519L8.52859 13.7192C7.6982 14.5398 6.57786 15 5.41048 15C4.2431 15 3.12277 14.5398 2.29238 13.7192C1.88298 13.3147 1.55793 12.8329 1.33608 12.3018C1.11423 11.7707 1 11.2008 1 10.6252C1 10.0496 1.11423 9.47979 1.33608 8.94868C1.55793 8.41758 1.88298 7.93579 2.29238 7.53126L2.75089 7.12608" stroke="white" stroke-width="2" stroke-linecap="round" stroke-linejoin="round"/>
</g>
<defs>
<clipPath id="clip0_130_502">
<rect width="16" height="16" fill="white"/>
</clipPath>
</defs>
</svg>
